<svg width="35" height="35" viewBox="0 0 35 35" fill="none" xmlns="http://www.w3.org/2000/svg">
<path d="M23.4861 17.9325C25.1234 19.6263 26.1302 21.9325 26.1302 24.4739C26.1302 29.6737 21.9146 33.8885 16.7149 33.8885C11.5152 33.8885 7.30029 29.6737 7.30029 24.4739C7.30029 21.9325 8.30716 19.6263 9.94443 17.9325C10.8925 16.95 12.0538 16.1736 13.3524 15.6781C14.3968 15.2773 15.5299 15.0586 16.7148 15.0586C17.8997 15.0586 19.0328 15.2773 20.0773 15.6781C21.3767 16.1736 22.5373 16.95 23.4861 17.9325ZM24.0131 24.4739C24.0131 20.4433 20.7455 17.1758 16.715 17.1758C12.6844 17.1758 9.41759 20.4433 9.41759 24.4739C9.41759 28.5037 12.6844 31.7712 16.715 31.7712C20.7455 31.7712 24.0131 28.5037 24.0131 24.4739Z" fill="#0D98BA"/>
<path d="M16.7148 17.1758C20.7454 17.1758 24.013 20.4434 24.013 24.4739C24.013 28.5037 20.7454 31.7713 16.7148 31.7713C12.6843 31.7713 9.41748 28.5037 9.41748 24.4739C9.41755 20.4434 12.6843 17.1758 16.7148 17.1758Z" fill="#D2D2D2"/>
<path d="M12.4383 28.0664C12.2534 28.0664 12.0714 27.9794 11.9569 27.8167C11.2657 26.8345 10.9004 25.6787 10.9004 24.4739C10.9004 21.2674 13.5088 18.6587 16.715 18.6587C17.4822 18.6587 18.228 18.8059 18.9318 19.0963C19.232 19.2201 19.375 19.564 19.2511 19.8643C19.1272 20.1646 18.7835 20.3077 18.4831 20.1836C17.9224 19.9523 17.3275 19.835 16.715 19.835C14.1574 19.835 12.0766 21.916 12.0766 24.474C12.0766 25.4351 12.3678 26.3571 12.9188 27.1399C13.1057 27.4055 13.0419 27.7724 12.7763 27.9593C12.6735 28.0316 12.5553 28.0664 12.4383 28.0664Z" fill="white"/>
<path d="M21.9455 11.3975V12.6929L19.695 13.0168L20.0776 15.6782C19.0332 15.2775 17.9 15.0587 16.7152 15.0587C15.5303 15.0587 14.3972 15.2775 13.3527 15.6782L13.7354 13.0168L11.4849 12.6929V11.3975H21.9455Z" fill="#FFA500"/>
<path d="M5.03352 11.7653V17.2262L2.95703 16.9274L3.72635 11.5771L5.03352 11.7653Z" fill="#FF5349"/>
<path d="M13.7353 13.0169L13.3526 15.6783C12.0541 16.1739 10.8927 16.9502 9.94471 17.9327L5.03357 17.2262V11.7654L11.4848 12.693L13.7353 13.0169Z" fill="#FF5349"/>
<path d="M29.7046 11.5771L30.473 16.9274L28.3966 17.2262V11.7653L29.7046 11.5771Z" fill="#FF5349"/>
<path d="M28.3966 11.7654V17.2262L23.4862 17.9327C22.5374 16.9502 21.3769 16.1738 20.0775 15.6783L19.6948 13.0169L21.9454 12.693L28.3966 11.7654Z" fill="#FF5349"/>
<path d="M16.7153 16.5882C12.3671 16.5882 8.82959 20.1257 8.82959 24.4739C8.82959 28.8221 12.3671 32.3597 16.7153 32.3597C21.0635 32.3597 24.6011 28.8222 24.6011 24.4739C24.6011 20.1256 21.0635 16.5882 16.7153 16.5882ZM16.7153 31.1834C13.0156 31.1834 10.0058 28.1735 10.0058 24.4739C10.0058 20.7743 13.0158 17.7644 16.7153 17.7644C20.415 17.7644 23.4249 20.7743 23.4249 24.4739C23.4249 28.1736 20.4149 31.1834 16.7153 31.1834Z" fill="black"/>
<path d="M5.62199 3.09258V1.11105C5.62199 0.78627 5.35867 0.522949 5.0339 0.522949C4.70912 0.522949 4.4458 0.78627 4.4458 1.11105V3.09258" fill="black"/>
<path d="M28.9846 4.70737V3.55202C28.9846 3.22725 28.7213 2.96393 28.3965 2.96393C28.0718 2.96393 27.8084 3.22725 27.8084 3.55202V4.70737V5.88363V11.2557L22.5338 12.0142V11.3978C22.5338 11.073 22.2705 10.8097 21.9457 10.8097H11.4847C11.1599 10.8097 10.8966 11.073 10.8966 11.3978V12.0142L5.62193 11.2557V5.28822H4.44567V7.49697H3.55188C3.2271 7.49697 2.96378 7.7603 2.96378 8.08507C2.96378 8.40985 3.2271 8.67317 3.55188 8.67317H4.44574V11.0866L3.80993 10.9951C3.65558 10.9731 3.49862 11.013 3.3738 11.1065C3.24891 11.1999 3.16633 11.3392 3.14411 11.4936L2.37527 16.8435C2.32906 17.165 2.55219 17.463 2.87368 17.5092L4.44581 17.7354V30.3164L1.28945 33.4729C1.05977 33.7025 1.05977 34.0749 1.28945 34.3045C1.40423 34.4194 1.55482 34.4768 1.70528 34.4768C1.85574 34.4768 2.00634 34.4194 2.12111 34.3045L4.44581 31.9798V33.8886C4.44581 34.2134 4.70913 34.4767 5.03391 34.4767C5.35868 34.4767 5.622 34.2134 5.622 33.8886V31.9798L7.9467 34.3045C8.17639 34.5342 8.54874 34.5342 8.77836 34.3045C9.00805 34.0748 9.00805 33.7025 8.77836 33.4729L5.622 30.3165V17.9047L8.80229 18.3622C7.49279 20.0536 6.71227 22.1741 6.71227 24.4739C6.71227 27.5532 8.11117 30.3114 10.3065 32.1478L9.74653 33.6878C9.63552 33.9931 9.79295 34.3305 10.0982 34.4414C10.1646 34.4656 10.2324 34.4771 10.2992 34.4771C10.5395 34.4771 10.7651 34.3286 10.852 34.0897L11.2933 32.8761C12.8565 33.8883 14.7184 34.4768 16.7154 34.4768C18.7123 34.4768 20.5742 33.8883 22.1374 32.8761L22.5788 34.0897C22.6656 34.3286 22.8912 34.4771 23.1315 34.4771C23.1982 34.4771 23.2662 34.4656 23.3325 34.4414C23.6378 34.3304 23.7952 33.993 23.6842 33.6878L23.1243 32.1478C25.3195 30.3114 26.7185 27.5531 26.7185 24.4739C26.7185 22.1742 25.9379 20.0537 24.6284 18.3622L27.8087 17.9047V30.3166L24.6523 33.4729C24.4226 33.7026 24.4226 34.075 24.6523 34.3046C24.882 34.5343 25.2543 34.5343 25.484 34.3046L27.8087 31.9799V33.8887C27.8087 34.2135 28.072 34.4768 28.3967 34.4768C28.7215 34.4768 28.9848 34.2135 28.9848 33.8887V31.9799L31.3095 34.3046C31.4243 34.4194 31.5749 34.4768 31.7254 34.4768C31.8758 34.4768 32.0264 34.4194 32.1412 34.3046C32.3709 34.0749 32.3709 33.7025 32.1412 33.4729L28.9848 30.3166V17.7355L30.557 17.5094C30.8785 17.4632 31.1017 17.165 31.0554 16.8436L30.2865 11.4937C30.2643 11.3393 30.1816 11.2001 30.0568 11.1066C29.932 11.0132 29.775 10.9733 29.6207 10.9953L28.9848 11.0867V8.6733H29.8786C30.2034 8.6733 30.4667 8.40998 30.4667 8.08521C30.4667 7.76043 30.2034 7.49711 29.8786 7.49711H28.9848V5.88363V4.70737H28.9846ZM12.0729 11.9858H21.3576V12.1832L19.6112 12.4344C19.4568 12.4566 19.3175 12.5392 19.2241 12.6641C19.1306 12.7889 19.0905 12.9458 19.1127 13.1002L19.361 14.8267C18.5179 14.5953 17.6308 14.4709 16.7153 14.4709C15.7996 14.4709 14.9127 14.5951 14.0696 14.8267L14.3179 13.1002C14.3401 12.9458 14.3 12.7889 14.2065 12.6641C14.1131 12.5392 13.9737 12.4566 13.8194 12.4344L12.073 12.1832L12.0729 11.9858ZM3.62317 16.4287L4.22467 12.2431L4.44574 12.2749V16.5471L3.62317 16.4287ZM5.622 12.444L13.0698 13.5149L12.8187 15.2612C11.6674 15.75 10.6263 16.449 9.74264 17.3091L5.622 16.7163V12.444ZM16.7153 33.3007C11.8482 33.3007 7.88859 29.341 7.88859 24.4739C7.88859 19.6068 11.8482 15.6472 16.7153 15.6472C21.5823 15.6472 25.5421 19.6068 25.5421 24.4739C25.5421 29.3409 21.5823 33.3007 16.7153 33.3007ZM23.6879 17.3091C22.8043 16.449 21.7632 15.75 20.6118 15.2612L20.3607 13.5149L27.8084 12.444V16.7163L23.6879 17.3091ZM29.2059 12.2431L29.8073 16.4287L28.9846 16.5471V12.2748L29.2059 12.2431Z" fill="black"/>
<path d="M9.47967 3.79143H0.588096C0.26332 3.79143 0 3.52811 0 3.20333C0 2.87855 0.26332 2.61523 0.588096 2.61523H9.47967C9.80444 2.61523 10.0678 2.87855 10.0678 3.20333C10.0678 3.52811 9.80444 3.79143 9.47967 3.79143Z" fill="#FFA500"/>
<path d="M9.47967 5.88356H0.588096C0.26332 5.88356 0 5.62024 0 5.29546C0 4.97069 0.26332 4.70737 0.588096 4.70737H9.47967C9.80444 4.70737 10.0678 4.97069 10.0678 5.29546C10.0678 5.62024 9.80444 5.88356 9.47967 5.88356Z" fill="#FFA500"/>
<path d="M34.4119 5.88356H22.3813C22.0565 5.88356 21.7932 5.62024 21.7932 5.29546C21.7932 4.97069 22.0565 4.70737 22.3813 4.70737H34.4118C34.7366 4.70737 34.9999 4.97069 34.9999 5.29546C35 5.62024 34.7367 5.88356 34.4119 5.88356Z" fill="#FFA500"/>
<path d="M11.3844 14.9725C11.3534 14.9725 11.322 14.97 11.2904 14.9649L6.89917 14.2592C6.57843 14.2077 6.3603 13.9059 6.41184 13.5852C6.46338 13.2646 6.76539 13.0465 7.08579 13.0979L11.4771 13.8037C11.7978 13.8552 12.0159 14.1569 11.9644 14.4776C11.9179 14.7666 11.6681 14.9725 11.3844 14.9725Z" fill="white"/>
<path d="M21.8914 14.9723C21.7369 14.9723 21.5848 14.9096 21.4758 14.7998C21.4483 14.7731 21.424 14.7426 21.4021 14.7104C21.3809 14.679 21.3628 14.6445 21.3479 14.6092C21.3338 14.5739 21.322 14.5363 21.315 14.4994C21.3071 14.461 21.3032 14.4226 21.3032 14.3842C21.3032 14.3457 21.3071 14.3073 21.315 14.2689C21.322 14.2321 21.3338 14.1944 21.3479 14.1591C21.3628 14.1238 21.3809 14.0893 21.4021 14.0579C21.424 14.0258 21.4483 13.9952 21.4758 13.9685C21.5848 13.8587 21.7369 13.796 21.8914 13.796C22.0459 13.796 22.198 13.8587 22.307 13.9685C22.3345 13.9952 22.3588 14.0257 22.3807 14.0579C22.4019 14.0893 22.4199 14.1238 22.4348 14.1591C22.4489 14.1944 22.4608 14.2321 22.4678 14.2689C22.4757 14.3073 22.4796 14.3457 22.4796 14.3842C22.4796 14.4226 22.4757 14.461 22.4678 14.4994C22.4608 14.5363 22.449 14.5739 22.4348 14.6092C22.4199 14.6445 22.4019 14.679 22.3807 14.7104C22.3588 14.7425 22.3344 14.7731 22.307 14.7998C22.198 14.9096 22.0459 14.9723 21.8914 14.9723Z" fill="white"/>
<path d="M23.7499 14.6736C23.4662 14.6736 23.2164 14.4678 23.1699 14.1787C23.1183 13.8581 23.3366 13.5563 23.6572 13.5048L26.1893 13.0979C26.51 13.0462 26.8118 13.2646 26.8633 13.5852C26.9148 13.9059 26.6966 14.2077 26.3759 14.2592L23.8438 14.6661C23.8123 14.6711 23.7809 14.6736 23.7499 14.6736Z" fill="white"/>
</svg>
