<svg width="35" height="24" viewBox="0 0 35 24" fill="none" xmlns="http://www.w3.org/2000/svg">
<path d="M35 6.19665H0V1.2963C0 0.580387 0.580387 0 1.2963 0H33.7037C34.4196 0 35 0.580387 35 1.2963V6.19665Z" fill="#800080"/>
<path d="M0 1.2963V1.64983H31.9557C32.8127 1.64983 33.5073 2.34453 33.5073 3.20138V6.19665H35V1.2963C35 0.580387 34.4196 0 33.7037 0H1.2963C0.580387 0 0 0.580387 0 1.2963Z" fill="black"/>
<path d="M33.7037 23.7657H1.2963C0.580387 23.7657 0 23.1853 0 22.4694V6.08527H35V22.4694C35 23.1853 34.4196 23.7657 33.7037 23.7657Z" fill="black"/>
<path d="M3.92696 22.1194H2.80472C2.07384 22.1194 1.4812 21.5269 1.4812 20.7959V6.08527H5.25036V20.7959C5.25048 21.5269 4.65795 22.1194 3.92696 22.1194Z" fill="white"/>
<path d="M9.58028 22.1194H8.45804C7.72716 22.1194 7.13452 21.5269 7.13452 20.7959V6.08527H10.9037V20.7959C10.9037 21.5269 10.3112 22.1194 9.58028 22.1194Z" fill="white"/>
<path d="M15.2346 22.1194H14.1123C13.3815 22.1194 12.7888 21.5269 12.7888 20.7959V6.08527H16.558V20.7959C16.5581 21.5269 15.9656 22.1194 15.2346 22.1194Z" fill="white"/>
<path d="M20.8879 22.1194H19.7657C19.0348 22.1194 18.4421 21.5269 18.4421 20.7959V6.08527H22.2113V20.7959C22.2113 21.5269 21.6188 22.1194 20.8879 22.1194Z" fill="white"/>
<path d="M26.5412 22.1194H25.419C24.6881 22.1194 24.0955 21.5269 24.0955 20.7959V6.08527H27.8646V20.7959C27.8647 21.5269 27.2722 22.1194 26.5412 22.1194Z" fill="white"/>
<path d="M32.1958 22.1194H31.0735C30.3426 22.1194 29.75 21.5269 29.75 20.7959V6.08527H33.5192V20.7959C33.5193 21.5269 32.9268 22.1194 32.1958 22.1194Z" fill="white"/>
<path d="M6.75362 18.5596H5.63138C4.9005 18.5596 4.30786 17.9671 4.30786 17.2361V6.08527H8.07702V17.2361C8.07702 17.9671 7.48449 18.5596 6.75362 18.5596Z" fill="black"/>
<path d="M12.4069 18.5596H11.2847C10.5538 18.5596 9.96118 17.9671 9.96118 17.2361V6.08527H13.7303V17.2361C13.7305 17.9671 13.1379 18.5596 12.4069 18.5596Z" fill="black"/>
<path d="M18.0612 18.5596H16.939C16.2081 18.5596 15.6155 17.9671 15.6155 17.2361V6.08527H19.3846V17.2361C19.3846 17.9671 18.7921 18.5596 18.0612 18.5596Z" fill="black"/>
<path d="M29.3691 18.5596H28.2469C27.516 18.5596 26.9233 17.9671 26.9233 17.2361V6.08527H30.6925V17.2361C30.6925 17.9671 30.1 18.5596 29.3691 18.5596Z" fill="black"/>
<path d="M2.72995 3.83007C3.18553 3.83007 3.55486 3.46074 3.55486 3.00515C3.55486 2.54956 3.18553 2.18024 2.72995 2.18024C2.27436 2.18024 1.90503 2.54956 1.90503 3.00515C1.90503 3.46074 2.27436 3.83007 2.72995 3.83007Z" fill="#FF5349"/>
<path d="M5.83346 3.83007C6.28905 3.83007 6.65838 3.46074 6.65838 3.00515C6.65838 2.54956 6.28905 2.18024 5.83346 2.18024C5.37787 2.18024 5.00854 2.54956 5.00854 3.00515C5.00854 3.46074 5.37787 3.83007 5.83346 3.83007Z" fill="#FF5349"/>
<path d="M28.3007 3.83007C28.7563 3.83007 29.1257 3.46074 29.1257 3.00515C29.1257 2.54956 28.7563 2.18024 28.3007 2.18024C27.8452 2.18024 27.4758 2.54956 27.4758 3.00515C27.4758 3.46074 27.8452 3.83007 28.3007 3.83007Z" fill="#FF5349"/>
<path d="M31.4043 3.83007C31.8598 3.83007 32.2292 3.46074 32.2292 3.00515C32.2292 2.54956 31.8598 2.18024 31.4043 2.18024C30.9487 2.18024 30.5793 2.54956 30.5793 3.00515C30.5793 3.46074 30.9487 3.83007 31.4043 3.83007Z" fill="#FF5349"/>
<path d="M21.9389 3.83007C22.3945 3.83007 22.7638 3.46074 22.7638 3.00515C22.7638 2.54956 22.3945 2.18024 21.9389 2.18024C21.4833 2.18024 21.114 2.54956 21.114 3.00515C21.114 3.46074 21.4833 3.83007 21.9389 3.83007Z" fill="#FF5349"/>
<path d="M25.0424 3.83007C25.498 3.83007 25.8674 3.46074 25.8674 3.00515C25.8674 2.54956 25.498 2.18024 25.0424 2.18024C24.5869 2.18024 24.2175 2.54956 24.2175 3.00515C24.2175 3.46074 24.5869 3.83007 25.0424 3.83007Z" fill="#FF5349"/>
</svg>
